<svg preserveAspectRatio="none" width="100%" height="100%" overflow="visible" style="display: block;" viewBox="0 0 63.6821 90.9982" fill="none" xmlns="http://www.w3.org/2000/svg">
<g id="Group">
<path id="Vector" d="M46.5735 43.61C54.159 40.9768 59.2051 36.3918 59.2051 31.1555V31.1525V31.1499C59.1884 29.6204 52.1714 28.3154 42.223 27.7686L42.1797 27.4977C41.9632 26.6885 41.5163 25.9106 40.9972 25.215C41.6929 25.7311 42.4717 26.1785 43.2824 26.3964C45.9414 27.1082 47.5284 26.3798 47.8815 25.0465C48.2402 23.7163 47.2338 22.2892 44.5703 21.5769C43.7667 21.3615 42.8632 21.3589 42.0031 21.4583C42.7966 21.1107 43.5765 20.6633 44.1697 20.0695C46.1149 18.1208 46.2779 16.3845 45.3033 15.4074C44.3317 14.4358 42.5898 14.5932 40.6416 16.5419C40.0503 17.1331 39.6009 17.911 39.2528 18.7085C39.3577 17.8474 39.3577 16.9475 39.1368 16.1388C38.425 13.4803 37.0009 12.4674 35.6646 12.8235C34.3354 13.1797 33.6044 14.7692 34.3187 17.4307C34.5341 18.2363 34.9821 19.0177 35.5012 19.7134C34.8045 19.1973 34.0251 18.7474 33.2165 18.5294C30.5565 17.8197 28.971 18.5486 28.6143 19.8789C28.2587 21.2121 29.2646 22.6362 31.9271 23.3485C32.7362 23.5639 33.6347 23.5695 34.4968 23.4671C33.6982 23.8121 32.9198 24.2621 32.3266 24.8528C31.3737 25.8052 30.8536 26.7082 30.6811 27.4977C16.1214 27.5804 4.49269 29.176 4.47504 31.1464V31.1494V31.152C4.47504 36.3887 9.51809 40.9737 17.1082 43.607C6.94587 48.9265 4.673e-07 59.5564 4.673e-07 71.8182C4.673e-07 79.0284 2.42694 85.659 6.4626 90.9947H17.7604C15.5216 88.033 14.1768 84.3565 14.1768 80.3592C14.1768 70.601 22.0846 62.6926 31.8398 62.6926C41.5935 62.6926 49.5003 70.6015 49.5003 80.3592C49.5003 84.3565 48.158 88.033 45.9202 90.9947H57.2175C61.2537 85.6565 63.6821 79.0284 63.6821 71.8182C63.6801 59.5564 56.7343 48.929 46.5735 43.61ZM37.1911 27.5663L36.5101 27.5496C36.791 27.1299 37.0392 26.683 37.2435 26.2163C37.1911 26.6638 37.1724 27.1163 37.1911 27.5663ZM37.7349 20.5387C38.7953 20.2547 39.8904 20.8863 40.1755 21.9491C40.4569 23.0115 39.8274 24.1047 38.7675 24.3917C37.7031 24.6757 36.6069 24.0467 36.3209 22.9813C36.0374 21.9214 36.668 20.8227 37.7349 20.5387ZM31.8398 33.7555C17.5369 33.7555 7.94318 32.3036 5.82597 31.158C7.88668 30.0427 17.0254 28.6433 30.6775 28.5661C30.7608 28.9334 30.9328 29.2587 31.1981 29.521C32.1344 30.4598 33.7764 30.3272 35.6283 28.5964C36.2079 28.6075 36.7794 28.6211 37.3404 28.6352L37.3656 28.7896C38.0774 31.4531 39.502 32.4605 40.8353 32.1049C41.9143 31.8148 42.555 30.6752 42.39 28.8501C50.7917 29.3304 56.313 30.3241 57.8582 31.158C55.7329 32.3006 46.1346 33.7555 31.8398 33.7555Z" fill="var(--fill-0, #7DB88A)"/>
<path id="Vector_2" d="M33.5338 77.394C35.9446 74.4162 33.6442 70.5208 31.0145 68.3158C31.5064 70.7195 27.5156 74.0989 30.0959 77.397C26.7993 77.5686 24.336 78.2087 24.336 78.973V89.3688C24.336 90.2683 27.6947 90.9982 31.8348 90.9982C35.9779 90.9982 39.333 90.2683 39.333 89.3688V78.973C39.333 78.2057 36.8546 77.563 33.5338 77.394ZM31.8348 80.2765C27.1035 80.2765 24.6659 79.3624 24.6659 78.9765C24.6659 78.587 26.6843 77.8773 30.3683 77.7174C30.619 77.9968 30.9076 78.2748 31.2667 78.5482C30.902 78.2203 30.67 77.8939 30.5181 77.5685L30.4354 77.3779C29.8644 75.7601 31.5497 74.1978 31.8781 72.2738C33.0308 74.1398 34.0009 75.9412 33.2407 77.4858L33.1923 77.5822L32.765 78.181L33.2588 77.7093C36.9727 77.8667 39.0102 78.5815 39.0102 78.973C39.0046 79.3624 36.5635 80.2765 31.8348 80.2765Z" fill="var(--fill-0, #7DB88A)"/>
<path id="Vector_3" d="M31.8398 75.8373L31.5089 76.1662V78.9765L31.8398 79.3044L32.1662 78.9765V76.1662L31.8398 75.8373Z" fill="var(--fill-0, #7DB88A)"/>
<path id="Vector_4" d="M18.784 12.7766C19.4085 12.7766 20.0557 12.6056 20.6605 12.3655C20.1531 12.768 19.6768 13.2458 19.3661 13.784C18.3405 15.5642 18.5605 16.8481 19.4519 17.3616C20.3387 17.8752 21.562 17.4196 22.5891 15.6444C22.9023 15.1062 23.0744 14.4549 23.1712 13.8173C23.264 14.4549 23.4396 15.1062 23.7539 15.6419C24.7794 17.4191 26.0032 17.8746 26.8911 17.3616C27.7815 16.8511 28.0019 15.5647 26.9723 13.784C26.6616 13.2432 26.1869 12.768 25.6779 12.3655C26.2807 12.6056 26.9279 12.7766 27.5519 12.7766C29.6096 12.7766 30.6099 11.9458 30.6099 10.9162C30.6099 9.89212 29.6091 9.05573 27.5519 9.05573C26.9314 9.05573 26.2807 9.22977 25.6779 9.46737C26.1843 9.06734 26.659 8.59516 26.9723 8.05085C27.9994 6.27315 27.7815 4.98678 26.8911 4.47375C26.0007 3.95719 24.7764 4.41019 23.7503 6.1879C23.4356 6.72867 23.2605 7.37741 23.1682 8.02059C23.0739 7.37741 22.8988 6.72867 22.5855 6.1879C21.5585 4.41019 20.3362 3.95719 19.4488 4.47375C18.5539 4.98678 18.337 6.27063 19.3656 8.05085C19.6763 8.58911 20.1525 9.06683 20.66 9.46939C20.0592 9.22927 19.4085 9.05523 18.7835 9.05523C16.7248 9.05523 15.7249 9.88859 15.7249 10.9157C15.7254 11.9453 16.7283 12.7766 18.784 12.7766ZM22.4241 9.62678C23.1369 9.21514 24.0444 9.46081 24.4546 10.1701C24.8672 10.8824 24.623 11.7934 23.9108 12.2015C23.199 12.6132 22.2889 12.37 21.8793 11.6607C21.4727 10.949 21.7128 10.0379 22.4241 9.62678Z" fill="var(--fill-0, #7DB88A)"/>
<path id="Vector_5" d="M36.4732 5.82822C36.9131 5.89178 37.3818 5.83377 37.8297 5.72632C37.4337 5.95786 37.0569 6.24793 36.7794 6.59297C35.8861 7.74112 35.9128 8.66327 36.4869 9.11324C37.0614 9.56322 37.9614 9.36698 38.8608 8.21884C39.1317 7.87127 39.3229 7.43794 39.45 6.99301C39.45 7.45106 39.5136 7.92323 39.6755 8.33486C40.2198 9.68731 41.0371 10.1181 41.709 9.84773C42.387 9.57734 42.6649 8.69404 42.1206 7.34714C41.9532 6.9355 41.6681 6.55464 41.3503 6.22371C41.7534 6.45021 42.1898 6.63737 42.6296 6.69841C44.0729 6.90271 44.8558 6.41692 44.9612 5.69655C45.0601 4.97316 44.4366 4.29164 42.9964 4.08734C42.559 4.02932 42.0843 4.08481 41.6424 4.19529C42.0374 3.96324 42.4152 3.6762 42.6927 3.32863C43.5921 2.18049 43.5614 1.25532 42.9843 0.808366C42.4097 0.360913 41.5102 0.557147 40.6103 1.70529C40.3399 2.05337 40.1492 2.49477 40.0261 2.93112C40.0221 2.4756 39.9646 2.00393 39.7961 1.59229C39.2523 0.242366 38.4361 -0.196007 37.7626 0.0774083C37.0892 0.353346 36.8021 1.2311 37.3485 2.58103C37.5134 2.99216 37.8005 3.37303 38.1158 3.70143C37.7177 3.47493 37.2824 3.28777 36.84 3.22926C35.3977 3.02495 34.6118 3.51074 34.5104 4.23111C34.41 4.94491 35.031 5.62442 36.4732 5.82822ZM39.8839 3.91279C40.4569 3.98998 40.8635 4.5252 40.7773 5.1023C40.7001 5.6794 40.1644 6.07994 39.5898 5.99671C39.0107 5.9165 38.6076 5.3843 38.6903 4.8072C38.7726 4.2301 39.3038 3.83309 39.8839 3.91279Z" fill="var(--fill-0, #7DB88A)"/>
</g>
</svg>
