<svg preserveAspectRatio="none" width="100%" height="100%" overflow="visible" style="display: block;" viewBox="0 0 95.9998 69.3682" fill="none" xmlns="http://www.w3.org/2000/svg">
<g id="Group">
<path id="Vector" d="M81.1964 59.3186C85.3243 59.3186 88.6707 55.9722 88.6707 51.8443C88.6707 47.7164 85.3243 44.37 81.1964 44.37C77.0685 44.37 73.7221 47.7164 73.7221 51.8443C73.7221 55.9722 77.0685 59.3186 81.1964 59.3186Z" fill="var(--fill-0, #7DB88A)"/>
<path id="Vector_2" d="M95.9059 60.5134C95.5166 59.0601 94.0362 58.1994 92.5761 58.5917L74.48 63.4427L71.6409 57.6074C72.2335 56.7375 72.5778 55.6891 72.5778 54.5617C72.5778 51.5611 70.1445 49.1274 67.1439 49.1274H32.6073C31.2374 49.1274 30.0009 49.6501 29.0447 50.4861H4.07512C1.82469 50.4861 0 52.3117 0 54.5617C0 56.8116 1.82517 58.6368 4.07512 58.6368H29.0447C30.0014 59.4728 31.2374 59.9955 32.6073 59.9955H66.7589L70.5712 67.8398C71.0358 68.7916 71.9959 69.3682 73.0151 69.3682L73.7183 69.2756L93.9818 63.8403C95.4336 63.4524 96.2963 61.9618 95.9059 60.5134Z" fill="var(--fill-0, #7DB88A)"/>
<path id="Vector_3" d="M33.468 47.6838C33.8316 47.7396 34.1914 47.7692 34.5444 47.7692C37.8238 47.7692 40.7148 45.3859 41.2439 42.0454L42.7936 32.3328L58.9709 46.4158C59.4844 46.8639 60.1201 47.0855 60.7524 47.0855C61.5104 47.0855 62.2668 46.7688 62.8002 46.1477C63.787 45.0174 63.6706 43.3037 62.535 42.3189L43.7973 26.0111L43.9637 24.9831C44.5562 21.277 42.0294 17.7935 38.3262 17.2068C34.6041 16.6152 31.137 19.1439 30.5493 22.8452L27.8324 39.906C27.2379 43.6136 29.7657 47.0947 33.468 47.6838Z" fill="var(--fill-0, #7DB88A)"/>
<path id="Vector_4" d="M41.1522 16.2753C45.6465 16.2753 49.2898 12.6319 49.2898 8.13763C49.2898 3.64334 45.6465 2.67029e-07 41.1522 2.67029e-07C36.6579 2.67029e-07 33.0146 3.64334 33.0146 8.13763C33.0146 12.6319 36.6579 16.2753 41.1522 16.2753Z" fill="var(--fill-0, #7DB88A)"/>
</g>
</svg>
