<svg preserveAspectRatio="none" width="100%" height="100%" overflow="visible" style="display: block;" viewBox="0 0 73 73" fill="none" xmlns="http://www.w3.org/2000/svg">
<g id="Ice crystals-01" clip-path="url(#clip0_0_16)">
<path id="Vector" d="M73 36.3712C72.9676 36.2668 72.9425 36.1635 72.8918 36.07C72.8905 36.0548 72.8888 36.0241 72.8883 36.0088C72.84 35.9446 72.7949 35.8848 72.7494 35.8237C72.7348 35.8043 72.7049 35.7651 72.6903 35.7457C72.573 35.6418 72.4538 35.5423 72.3329 35.445C72.1019 35.2868 71.8763 35.1211 71.6491 34.9585C71.5043 34.859 71.3625 34.7562 71.2195 34.6567C70.7565 34.3384 70.2999 34.0109 69.8276 33.7067C69.7842 33.6743 69.7421 33.6438 69.7006 33.6156C69.5733 33.5368 69.4487 33.4548 69.3259 33.3736C68.6691 32.9202 67.9463 32.5677 67.3138 32.0808C67.2571 32.0514 67.2008 32.0239 67.1452 31.9977L67.1409 31.9537C67.0982 31.9513 67.0115 31.9457 66.9686 31.9433L66.965 31.8926C66.6833 31.8791 66.3901 31.8499 66.1224 31.9605C65.8426 32.1474 65.5309 32.2776 65.2303 32.426C65.163 32.4548 65.0971 32.4865 65.0316 32.5194C64.9492 32.558 64.8667 32.5965 64.7854 32.6375C64.3993 32.8225 64.0135 33.0096 63.6269 33.1928C63.5438 33.2314 63.4613 33.2716 63.3793 33.3126C62.7871 33.5936 62.2005 33.8844 61.6116 34.1722C61.1625 34.396 60.7151 34.6232 60.2727 34.8602C59.8133 35.1071 59.3623 35.3709 58.9413 35.6808C57.9203 35.5983 56.8925 35.6508 55.8721 35.5666C55.9063 35.4865 55.9424 35.4089 55.9789 35.3325C56.3548 34.6481 56.766 33.9773 57.2798 33.3865C57.7761 32.8463 58.3167 32.3503 58.8674 31.8664C58.8876 31.8522 58.9285 31.8254 58.9485 31.8114C59.0444 31.7247 59.1404 31.6385 59.2437 31.5615C60.9516 30.2008 62.8561 29.1212 64.7076 27.973C65.3247 27.5747 65.9974 27.2436 66.5303 26.7296C65.9413 26.6202 65.3683 26.8354 64.8084 26.9875C63.5429 27.3443 62.3099 27.8092 61.1178 28.3615C60.7046 28.554 60.2953 28.755 59.8951 28.9726C59.1941 29.3545 58.5203 29.7851 57.8762 30.257C57.7944 30.3163 57.7149 30.3792 57.6337 30.4409C57.5292 30.519 57.4302 30.6041 57.327 30.6847C56.8942 31.0268 56.4978 31.4105 56.0914 31.7827L56.0859 31.8278L56.0444 31.8273C56.0248 31.8475 55.9851 31.8884 55.9655 31.9085L55.9675 31.9513L55.9039 31.9483L55.9014 31.9966C55.4333 32.4634 55.0551 33.0089 54.6988 33.5631C54.4649 33.9432 54.2368 34.3269 54.0231 34.7191C53.9699 34.8236 53.9174 34.93 53.8665 35.0382C53.7987 35.1873 53.7432 35.3424 53.6979 35.5019C53.1828 35.503 52.6678 35.4884 52.1533 35.4878C52.1668 34.9869 52.3109 34.5011 52.4801 34.0337C52.9176 32.8539 53.6661 31.828 54.3639 30.7949C54.1371 30.8927 53.9863 31.0997 53.7859 31.2378C52.7679 32.0933 51.775 33.0373 51.1566 34.2317C50.9659 34.6209 50.8138 35.0278 50.6946 35.4451C50.2283 35.4549 49.7627 35.4463 49.2971 35.4425C49.355 34.4613 49.6381 33.4831 50.1978 32.6681C50.4275 32.3222 50.6663 31.9745 51.011 31.7333C50.9665 31.7344 50.8771 31.7382 50.8332 31.7399C50.5694 31.8987 50.2717 31.9947 50.0157 32.1688C49.3331 32.6081 48.7142 33.1702 48.281 33.8625C48.2645 33.8906 48.2315 33.9475 48.2151 33.9761C47.9994 34.3629 47.857 34.7833 47.7318 35.2068C47.7177 35.2794 47.7043 35.354 47.6921 35.4298C47.1856 35.4433 46.679 35.4249 46.1725 35.4298C46.1273 34.5865 46.3448 33.7555 46.6577 32.9803C46.714 32.8861 46.7647 32.7877 46.8111 32.6906C46.4823 32.8824 46.1578 33.0914 45.8951 33.37C45.526 33.7605 45.1783 34.1815 44.9462 34.6703C44.8349 34.9044 44.7677 35.1549 44.6859 35.4004C44.3272 35.4322 43.9569 35.4236 43.597 35.3937C43.4675 35.3857 43.3392 35.3827 43.2108 35.3765C43.1803 35.0356 43.1723 34.6904 43.2469 34.3556C43.3154 34.0457 43.3294 33.7239 43.4522 33.4286C43.368 33.4298 43.2867 33.4537 43.2274 33.5166C42.7007 33.8624 42.3225 34.3878 42.0145 34.9286C41.9443 35.0702 41.8867 35.2175 41.8214 35.363C41.28 35.3928 40.7362 35.3575 40.1943 35.3741C40.0873 34.9763 40.0349 34.5431 40.1307 34.1399C40.2847 33.9314 40.4901 33.7653 40.6643 33.574C41.5514 32.6686 42.4503 31.7741 43.3333 30.8642C43.442 30.7334 43.6327 30.7939 43.7805 30.7665C44.8511 30.6076 45.9198 30.4396 46.9933 30.301C47.8689 30.1977 48.7414 30.0566 49.6226 30.0114C49.628 29.9851 49.6396 29.9319 49.6451 29.9052C49.4654 29.783 49.2284 29.8679 49.0255 29.8331C47.6361 29.6791 46.2454 29.527 44.8644 29.3113C45.1601 29.004 45.4634 28.7033 45.7638 28.4009C47.5229 28.3771 49.2822 28.3216 51.0388 28.214C51.5862 28.1951 52.13 28.1169 52.6788 28.1297C52.6951 28.0992 52.7284 28.0375 52.7447 28.007C52.5248 27.8878 52.2656 27.8952 52.028 27.8371C50.4442 27.5065 48.8537 27.2022 47.257 26.9388C47.2662 26.9156 47.2834 26.8679 47.2924 26.8448C47.5553 26.6016 47.7935 26.3346 48.0452 26.081C48.4309 26.1873 48.8232 26.0773 49.2135 26.0784C51.1706 25.9643 53.1255 25.8157 55.08 25.6563C56.2842 25.5816 57.482 25.4211 58.6869 25.3709C58.6899 25.2909 58.6637 25.1902 58.5647 25.2036C58.3459 25.189 58.1255 25.2036 57.909 25.1694C55.421 24.9226 52.9279 24.7147 50.4361 24.5187C50.1777 24.5004 49.9187 24.4894 49.6601 24.4796C49.6607 24.4589 49.6614 24.4173 49.662 24.396C50.014 24.0459 50.3414 23.6683 50.6898 23.3176C51.1683 23.405 51.6564 23.408 52.1434 23.413C52.6176 23.4533 53.0916 23.4001 53.5658 23.3867C54.0046 23.3415 54.458 23.3212 54.8723 23.1575C54.9962 23.1037 55.168 22.9363 55.0153 22.8203C54.7757 22.6058 54.4391 22.5624 54.1427 22.4702C53.3953 22.2752 52.6395 22.1152 51.8832 21.9612C52.0323 21.7089 52.2321 21.4919 52.389 21.2457C52.5772 21.3843 52.7801 21.5024 52.9896 21.6068C53.0911 21.6441 53.1919 21.6844 53.2939 21.726C53.3557 21.7432 53.4178 21.7627 53.4809 21.7847C54.5226 22.0504 55.6891 21.6985 56.4017 20.8914C57.2052 20.0311 57.4264 18.6801 56.9241 17.6128C56.9094 17.5815 56.8794 17.5187 56.8641 17.4874C56.569 16.9094 56.0937 16.4335 55.5157 16.1389C55.4844 16.1236 55.4223 16.0936 55.3903 16.079C54.8691 15.8378 54.287 15.765 53.7185 15.8353C53.1265 15.9392 52.552 16.186 52.1115 16.6016C51.305 17.3134 50.9519 18.4804 51.2189 19.5221C51.2379 19.5831 51.2574 19.6456 51.2763 19.7096C51.3723 19.9638 51.4833 20.2137 51.6375 20.4399C51.4249 20.592 51.2018 20.7331 51.016 20.9189C50.7913 20.0464 50.6537 19.1501 50.3628 18.2959C50.3109 18.1322 50.2095 17.9898 50.064 17.8988C49.8293 18.0338 49.7702 18.3094 49.7236 18.5556C49.5176 19.7201 49.5924 20.9062 49.6192 22.0817C49.2612 22.4368 48.8751 22.7667 48.5158 23.1222C48.5041 22.9359 48.4968 22.7495 48.4839 22.5643C48.3164 20.4276 48.1369 18.2903 47.9371 16.1555C47.8821 15.5842 47.807 15.0142 47.799 14.4405C47.8119 14.3397 47.7091 14.3098 47.6322 14.3148C47.6231 14.4589 47.6225 14.605 47.6157 14.7515C47.3646 17.6012 47.127 20.4534 46.9552 23.3086C46.9069 23.7736 46.9265 24.2472 46.8465 24.7078C46.5783 24.984 46.2935 25.2437 46.0228 25.5175C45.7711 23.9655 45.4648 22.4227 45.1479 20.8837C45.1009 20.6747 45.1032 20.4479 44.9952 20.2586C44.9645 20.275 44.9035 20.3081 44.8729 20.3244C44.8858 20.8596 44.8094 21.3919 44.7911 21.9265C44.6921 23.5646 44.6316 25.205 44.6065 26.8457C44.6024 26.9495 44.4984 27.0081 44.4398 27.0845C44.1934 27.3178 43.9436 27.5482 43.7149 27.7987C43.6942 27.7998 43.652 27.8017 43.6313 27.8024C43.5476 27.0974 43.4374 26.3953 43.3644 25.6889C43.288 24.9551 43.1621 24.2244 43.1541 23.4864C43.1554 23.3922 43.0813 23.3226 42.9928 23.3763C42.8601 25.0932 42.5931 26.798 42.3433 28.502C42.281 28.7592 42.3182 29.0507 42.1851 29.2859C41.1737 30.3124 40.1168 31.2944 39.0988 32.3147C38.8818 32.5078 38.7053 32.7522 38.4609 32.9111C38.0955 32.9294 37.7257 32.8622 37.3848 32.7309C37.391 32.2354 37.3721 31.7399 37.3897 31.245C37.9316 31.119 38.4137 30.8161 38.841 30.4696C39.067 30.2881 39.2778 30.0858 39.4359 29.842C39.5038 29.7546 39.5783 29.6666 39.5729 29.5506C39.2716 29.6752 38.9434 29.6868 38.6288 29.7595C38.2164 29.8469 37.7886 29.8249 37.3785 29.7363C37.3688 29.5261 37.3719 29.3166 37.3706 29.1076C37.3706 28.8544 37.3004 28.5962 37.3768 28.3486C37.5155 28.3241 37.653 28.2913 37.7911 28.262C37.9999 28.1916 38.2054 28.1128 38.4069 28.0242C39.1829 27.591 39.8869 26.9843 40.3122 26.193C39.4023 26.6646 38.3605 26.8987 37.3352 26.8223C37.3347 26.3384 37.3266 25.8557 37.3322 25.3731C37.4868 25.3413 37.6397 25.3022 37.7935 25.2679C38.2201 25.15 38.6386 24.9996 39.0278 24.7876C39.758 24.3636 40.347 23.7287 40.8077 23.028C40.9935 22.7604 41.0968 22.4481 41.2624 22.1695C41.2641 22.1249 41.2679 22.0363 41.269 21.9917C41.0272 22.3369 40.6782 22.5752 40.3311 22.8062C40.2351 22.8697 40.1374 22.9308 40.039 22.9926C39.2173 23.4686 38.2684 23.6952 37.3225 23.7117C37.3212 23.2658 37.3322 22.8195 37.345 22.3742C38.0214 22.1818 38.6917 21.9391 39.2831 21.5512C40.2565 20.9188 41.0593 20.0629 41.7982 19.1757C41.926 18.99 42.1189 18.8513 42.2075 18.6399C41.7278 18.9417 41.2836 19.2998 40.7911 19.5833C39.764 20.2468 38.6195 20.7857 37.3854 20.8835C37.3867 20.3611 37.3884 19.8393 37.394 19.3181C37.5931 19.2888 37.7819 19.218 37.9646 19.1366C38.1118 19.0657 38.2572 18.9905 38.4021 18.9147C38.7527 18.7199 39.0968 18.5147 39.4384 18.3044C40.0108 17.9462 40.5516 17.5394 41.0467 17.0806L41.0515 17.0366L41.0937 17.0379C41.1139 17.0184 41.1548 16.9786 41.1749 16.9584L41.1736 16.9157L41.2372 16.9187L41.2352 16.8564L41.2805 16.8497C41.6304 16.4623 41.9923 16.0859 42.3179 15.6771C42.4622 15.4944 42.6051 15.3118 42.7455 15.1273C43.2045 14.4961 43.6304 13.8399 44.003 13.1545C44.2334 12.7408 44.4399 12.3143 44.6404 11.8854C45.1939 10.6927 45.6582 9.45852 46.0152 8.1925C46.1673 7.63412 46.3812 7.06098 46.2725 6.47438C45.9461 6.79812 45.7079 7.19664 45.4658 7.58455C44.7764 8.7069 44.0947 9.83426 43.3945 10.9499C42.7955 11.9221 42.148 12.8641 41.4403 13.76C41.3603 13.8614 41.2734 13.9585 41.1911 14.0586C40.6943 14.658 40.1555 15.2238 39.5833 15.7517C39.0341 16.2221 38.4194 16.6077 37.7889 16.9584C37.759 16.9755 37.6984 17.0103 37.6684 17.0275C37.5756 17.066 37.4828 17.1045 37.3892 17.1406C37.3758 16.1141 37.3941 15.0863 37.3208 14.0617C37.6147 13.6633 37.8659 13.2368 38.1029 12.8031C38.3118 12.4175 38.5086 12.0258 38.7085 11.636C38.7603 11.5279 38.8129 11.4216 38.8649 11.3159C39.0647 10.9181 39.2566 10.5173 39.4523 10.1183C39.4908 10.0347 39.5305 9.95215 39.5713 9.87151C39.6484 9.70462 39.7284 9.54032 39.809 9.37716C39.9526 9.07233 40.0986 8.76921 40.2459 8.46682C40.3168 8.31727 40.3883 8.16857 40.456 8.0196C40.4841 7.96215 40.5129 7.90543 40.5423 7.85028C40.6976 7.52167 40.8411 7.18546 41.0415 6.88192C41.151 6.61419 41.1222 6.32096 41.1094 6.04048L41.0591 6.03504C41.0561 5.99221 41.0505 5.90669 41.0482 5.864L41.0041 5.85842C40.9762 5.80097 40.9485 5.74539 40.921 5.6911C40.5686 5.25047 40.3101 4.74581 40.0077 4.27166C39.7719 3.90151 39.5391 3.52992 39.2884 3.17065L39.2706 3.12238C39.0073 2.75767 38.7642 2.37878 38.5026 2.0135C38.4508 1.93528 38.3976 1.86008 38.3455 1.78502C38.2448 1.64134 38.142 1.49967 38.0432 1.35671C37.9997 1.29439 37.9575 1.23452 37.9148 1.17521C37.8557 1.09098 37.7958 1.00962 37.7371 0.927822C37.6759 0.841587 37.6143 0.756784 37.5561 0.670549C37.4554 0.547212 37.3533 0.424306 37.252 0.302831L37.2013 0.300969L37.1964 0.260716C37.1262 0.213015 37.0576 0.164167 36.9904 0.117755C36.9757 0.116466 36.9464 0.114031 36.9318 0.112885C36.7447 0.0150462 36.5243 -0.0289309 36.3171 0.0223518C36.2322 0.0462742 36.1472 0.0711994 36.0684 0.112885C36.0482 0.112168 36.0086 0.111022 35.9889 0.110449L35.9811 0.163594C35.9218 0.191671 35.8624 0.22032 35.8044 0.250259L35.7941 0.281344C35.5832 0.465991 35.4312 0.702923 35.2656 0.926533C35.1655 1.07136 35.0609 1.21246 34.9588 1.35613C34.8622 1.50096 34.7585 1.64148 34.6582 1.78444C34.5177 1.98972 34.374 2.19327 34.2316 2.39783C34.1901 2.45771 34.1485 2.51759 34.1083 2.5799C33.9328 2.83717 33.7569 3.09373 33.5877 3.35587C33.3615 3.69609 33.1403 4.0396 32.924 4.38669C32.6502 4.82474 32.4066 5.28428 32.0845 5.69053C32.0559 5.7388 32.0278 5.78765 31.9996 5.83779C31.9648 5.9117 31.9317 5.98805 31.8969 6.06383C31.8742 6.33643 31.8566 6.62107 31.9603 6.88078C32.1729 7.19907 32.3155 7.5559 32.4865 7.89683C32.5836 8.10211 32.6808 8.3081 32.7803 8.51337C32.9051 8.77666 33.0345 9.03881 33.1598 9.30281C33.1983 9.38346 33.238 9.4654 33.2783 9.54848C33.3286 9.65549 33.3804 9.76307 33.4316 9.87165C33.6254 10.27 33.8178 10.6697 34.0145 11.0675C34.0872 11.2166 34.1612 11.365 34.2345 11.5153C34.6787 12.3846 35.1039 13.2712 35.6819 14.0625C35.6013 15.0829 35.649 16.1088 35.5695 17.1292C35.4907 17.0944 35.4131 17.0588 35.3354 17.0259C35.3049 17.0088 35.2437 16.9752 35.2132 16.9587C34.4848 16.5499 33.7668 16.1021 33.1668 15.5155C32.8491 15.2015 32.5296 14.8886 32.2387 14.5501C32.1152 14.4046 31.979 14.2709 31.8629 14.1205L31.8439 14.1033C31.7535 13.9854 31.6545 13.8754 31.5622 13.7605C30.9279 12.9552 30.3384 12.1145 29.7939 11.2463C29.0453 10.0579 28.3169 8.85731 27.5831 7.66033C27.3258 7.24663 27.0765 6.8209 26.7301 6.47438C26.6207 7.06213 26.8364 7.63469 26.988 8.19422C27.3443 9.45952 27.8098 10.6932 28.3622 11.8866C28.5622 12.3149 28.7698 12.74 28.9988 13.1537C29.3722 13.8399 29.7975 14.4961 30.2576 15.1266C30.3181 15.2066 30.381 15.2873 30.4421 15.3704C30.5203 15.4729 30.6047 15.5726 30.6847 15.6765C31.0421 16.114 31.4185 16.5367 31.8212 16.9339L31.8285 16.9773L31.8884 16.9785L31.8897 17.0232C31.9105 17.0383 31.9509 17.069 31.9715 17.0842C32.7421 17.8338 33.6721 18.3886 34.6014 18.9166C34.7455 18.9917 34.8905 19.0652 35.037 19.1366C35.188 19.2038 35.3444 19.2575 35.5032 19.3058C35.5039 19.8196 35.4884 20.3342 35.4891 20.8492C35.0181 20.8381 34.5591 20.7062 34.1167 20.5535C32.9038 20.1203 31.8522 19.3535 30.7951 18.6399C30.8849 18.8514 31.0782 18.9918 31.2064 19.1782C32.0698 20.2114 33.023 21.2195 34.2322 21.8463C34.6134 22.0381 35.0172 22.1769 35.4231 22.307C35.5155 22.4378 35.4251 22.6052 35.4672 22.7536C35.4298 23.0689 35.4562 23.3885 35.4427 23.7061C34.4633 23.6468 33.485 23.3659 32.6717 22.8062C32.3241 22.5764 31.9757 22.3364 31.7337 21.9911C31.735 22.0363 31.7386 22.1255 31.7404 22.1702C31.7582 22.202 31.7949 22.2643 31.8125 22.296C32.2586 23.317 33.0176 24.2133 33.9751 24.7889C34.1382 24.8714 34.3038 24.9515 34.4719 25.0266C34.7137 25.117 34.9607 25.1946 35.2088 25.2704C35.2828 25.2833 35.3566 25.2973 35.4318 25.3126C35.4434 25.8179 35.4277 26.3244 35.4294 26.8309C34.5868 26.8756 33.7569 26.6562 32.981 26.3457C32.8869 26.2883 32.7896 26.2346 32.6908 26.1917C33.1143 26.9836 33.8199 27.5904 34.5954 28.0236C34.737 28.0829 34.8789 28.1428 35.022 28.2014C35.1503 28.235 35.2785 28.268 35.4039 28.315C35.4496 28.8049 35.3941 29.2999 35.3774 29.7917C35.0402 29.8216 34.6981 29.8297 34.365 29.7575C34.0527 29.6866 33.7278 29.6725 33.429 29.5509C33.4326 29.6328 33.4565 29.7128 33.5175 29.7751C33.8646 30.3005 34.3882 30.68 34.9291 30.9873C35.0727 31.0576 35.2192 31.1223 35.3715 31.1766C35.3831 31.7204 35.3654 32.2649 35.3745 32.8092C35.0281 32.9106 34.6614 32.9346 34.3028 32.9089C34.1995 32.9033 34.1096 32.8515 34.0223 32.8044L34.0236 32.7617C34.0034 32.7458 33.963 32.7145 33.943 32.6988C33.841 32.5979 33.7383 32.4984 33.6368 32.3988C32.7098 31.4921 31.7965 30.572 30.8652 29.6701C30.7351 29.5595 30.7955 29.3677 30.7673 29.221C30.4815 27.2768 30.1649 25.3327 30.0104 23.3738C29.8893 23.3096 29.8319 23.4452 29.8448 23.5467C29.8515 23.978 29.7837 24.4052 29.7398 24.834C29.6125 25.9459 29.4776 27.0568 29.3131 28.164C29.0291 27.8352 28.6984 27.5504 28.4003 27.2352C28.379 25.5152 28.3245 23.7959 28.2207 22.079C28.2016 21.4929 28.1198 20.9106 28.1301 20.3242C28.0996 20.3077 28.0379 20.2746 28.0075 20.2587C27.8749 20.5203 27.8858 20.8275 27.812 21.1093C27.4868 22.6472 27.1973 24.193 26.94 25.7438C26.9162 25.7359 26.8691 25.7195 26.8453 25.7114C26.6205 25.4573 26.3559 25.2423 26.126 24.9942C26.0418 24.9203 26.1144 24.8017 26.1273 24.7156C25.983 21.8389 25.7448 18.9647 25.5072 16.0925C25.4497 15.5023 25.3893 14.9114 25.3721 14.3182C25.2897 14.306 25.1931 14.339 25.204 14.441C25.1864 15.2188 25.0727 15.9911 25.0068 16.767C24.8197 18.9666 24.6065 21.165 24.4739 23.3683C24.122 23.1344 23.861 22.7903 23.5341 22.5252C23.4503 22.4311 23.2732 22.3614 23.3227 22.2105C23.4399 21.7271 23.3916 21.2256 23.4144 20.7337C23.4179 19.9407 23.4136 19.1366 23.2353 18.3599C23.1986 18.1706 23.1045 17.9988 22.9365 17.8987C22.6828 18.0514 22.6163 18.3564 22.5362 18.6197C22.3083 19.4428 22.1329 20.2805 21.963 21.1169C21.7076 20.9732 21.4932 20.7698 21.2458 20.614C21.7377 19.9749 21.9522 19.1482 21.8482 18.3495C21.7888 18.1081 21.732 17.865 21.6306 17.6377C21.2731 16.7762 20.4849 16.126 19.5862 15.8969C18.9574 15.7515 18.2834 15.7851 17.6896 16.0472C17.621 16.0753 17.5534 16.1065 17.4855 16.1377C16.8676 16.4555 16.3678 16.9796 16.0777 17.6108C15.9677 17.8645 15.8951 18.1313 15.8339 18.4008C15.7527 19.0888 15.8767 19.8055 16.2366 20.4025C16.6827 21.1693 17.4819 21.6899 18.3489 21.848C18.7411 21.8866 19.1372 21.8701 19.522 21.7863C19.7323 21.7191 19.9381 21.6385 20.1393 21.5474C20.2394 21.4863 20.3403 21.4257 20.4405 21.3653C20.5719 21.5895 20.7871 21.768 20.8646 22.0209C20.1105 22.1628 19.3608 22.3332 18.6202 22.5361C18.3569 22.6154 18.0513 22.682 17.8986 22.9374C18.0661 23.2228 18.4224 23.2497 18.7156 23.3072C19.3816 23.3988 20.0593 23.4342 20.7302 23.4183C21.18 23.4092 21.6303 23.3914 22.0807 23.3835C22.4124 23.7164 22.724 24.0745 23.0498 24.4166C23.0694 24.4337 23.1091 24.4679 23.1286 24.4851C22.9386 24.498 22.7492 24.5071 22.5597 24.5126L22.5206 24.5377C21.8046 24.5627 21.0926 24.6445 20.3778 24.6911C18.9927 24.8181 17.6051 24.9239 16.2204 25.0601C15.6265 25.1132 15.0345 25.1957 14.4376 25.2036C14.3368 25.1914 14.3104 25.291 14.319 25.3722C15.7306 25.4383 17.1345 25.6185 18.5454 25.7058C20.1116 25.8318 21.6775 25.9545 23.2467 26.0419C23.7325 26.0982 24.2298 26.0694 24.7101 26.1587C24.9826 26.4255 25.2484 26.7018 25.5106 26.9803C23.961 27.2333 22.4213 27.5377 20.8839 27.8547C20.6755 27.9017 20.4457 27.8957 20.2587 28.0093C20.2752 28.0398 20.3083 28.0997 20.3248 28.1296C21.226 28.1375 22.1236 28.2463 23.025 28.2696C24.2965 28.3417 25.5706 28.3715 26.8433 28.3953C26.9208 28.3905 26.9692 28.4558 27.0229 28.5035C27.312 28.787 27.5742 29.1004 27.8833 29.3631C27.1524 29.4438 26.4258 29.5624 25.6945 29.638C24.9576 29.7144 24.2239 29.8403 23.4815 29.8489C23.3887 29.8463 23.3283 29.9228 23.3788 30.0107C23.702 30.0193 24.0222 30.0633 24.3442 30.0927C25.7056 30.2551 27.065 30.4355 28.4198 30.6469C28.6983 30.7049 28.9984 30.6909 29.2636 30.7996C29.7383 31.2536 30.1936 31.7296 30.6501 32.2036C30.6696 32.2195 30.708 32.2526 30.7276 32.269L30.7325 32.3014C30.7583 32.3228 30.8094 32.365 30.8352 32.3864C30.8504 32.4035 30.8809 32.4371 30.8964 32.4543C31.4132 32.995 31.9411 33.5255 32.468 34.0569C32.6134 34.2194 32.7997 34.3501 32.9127 34.5402C32.9297 34.9057 32.8651 35.2765 32.7312 35.6175C32.2362 35.6119 31.7413 35.6266 31.2464 35.6139C31.1932 35.3738 31.0985 35.1465 30.9879 34.9283C30.6818 34.3877 30.3023 33.8645 29.7774 33.5174C29.7157 33.4564 29.6365 33.4271 29.5514 33.4295C29.5905 33.5578 29.6474 33.6819 29.6633 33.818C29.7121 34.2023 29.8294 34.5788 29.816 34.9698C29.8184 35.1891 29.775 35.4054 29.7383 35.6218C29.5055 35.6335 29.2726 35.6285 29.04 35.6358C28.8113 35.6657 28.5749 35.6792 28.3489 35.6266C28.325 35.4848 28.2922 35.3461 28.2622 35.2081C28.1925 34.9992 28.1131 34.7945 28.0238 34.5939C27.5912 33.8185 26.9851 33.1129 26.1933 32.6908C26.2373 32.7879 26.2892 32.8856 26.3459 32.9791C26.6943 33.8271 26.9033 34.7467 26.8219 35.6676C26.3392 35.6657 25.8558 35.6755 25.3732 35.67C25.3433 35.5136 25.3036 35.3596 25.2688 35.2069C25.1913 34.9418 25.1093 34.6785 25.0061 34.4229C24.9382 34.2714 24.8657 34.1235 24.7903 33.977C24.3583 33.2327 23.7082 32.634 22.9903 32.1702C22.733 31.9954 22.4349 31.8983 22.1692 31.74C22.1251 31.7383 22.0365 31.7346 21.9927 31.7327C22.3372 31.9745 22.5767 32.3236 22.8065 32.6706C22.8713 32.7652 22.9324 32.8637 22.993 32.9638C23.4708 33.7845 23.695 34.7339 23.7126 35.6796C23.2667 35.6802 22.8211 35.6693 22.3758 35.657C22.1357 34.7699 21.7611 33.9114 21.1793 33.1934C20.5805 32.4315 19.8662 31.768 19.117 31.157C18.9551 31.0391 18.8305 30.8692 18.6404 30.7953C18.7211 30.9633 18.8507 31.1001 18.9534 31.256C19.3297 31.7857 19.6756 32.3368 19.9963 32.9026C20.4693 33.7353 20.8017 34.6568 20.8842 35.616C20.3612 35.6153 19.8386 35.6136 19.3157 35.6074C19.3009 35.5157 19.2869 35.4308 19.2644 35.3447C19.2113 35.2164 19.1587 35.0893 19.1067 34.9634C19.0401 34.8425 18.9772 34.7216 18.9173 34.5998C18.3888 33.6711 17.8346 32.7412 17.0855 31.9707C17.0703 31.9505 17.0391 31.9096 17.0236 31.8889L16.9956 31.8858C16.9766 31.8669 16.9383 31.8291 16.9193 31.8101L16.9168 31.782C16.8966 31.7661 16.8569 31.7343 16.8367 31.7178C16.4634 31.3586 16.0803 31.0103 15.6775 30.684C15.5736 30.6039 15.4746 30.5197 15.3713 30.4408C15.289 30.3803 15.2087 30.3167 15.1275 30.2574C14.4482 29.7589 13.7338 29.3074 12.9922 28.9083C12.6443 28.7244 12.2918 28.5497 11.9349 28.3853C11.7108 28.282 11.4871 28.1782 11.2598 28.0829C10.2338 27.6301 9.17186 27.2635 8.09401 26.958C7.56784 26.8139 7.0272 26.6249 6.47481 26.7295C6.98551 27.2269 7.63273 27.5476 8.2271 27.9308C10.1011 29.0928 12.0302 30.1841 13.7593 31.5614C13.8876 31.6579 14.0031 31.7702 14.1326 31.8675C14.2762 31.9861 14.4082 32.1173 14.5505 32.2384C14.8579 32.4999 15.1401 32.7889 15.4261 33.0737C16.0885 33.725 16.5772 34.5253 17.0264 35.332C17.066 35.4236 17.1053 35.517 17.1414 35.613C16.1148 35.6246 15.087 35.6076 14.063 35.6808C13.6635 35.3875 13.2374 35.1346 12.8024 34.8982C12.4328 34.6989 12.0589 34.5077 11.6835 34.3183C11.5613 34.2559 11.4391 34.1956 11.3169 34.1363C10.7694 33.868 10.2231 33.5961 9.67153 33.3365C9.57354 33.287 9.47527 33.24 9.37743 33.1936C9.0733 33.0487 8.76888 32.9033 8.4659 32.7554C8.39929 32.7236 8.33325 32.6925 8.26663 32.665C8.20991 32.6339 8.15361 32.6045 8.09673 32.577C8.03012 32.5452 7.96408 32.5141 7.89747 32.4859C7.55652 32.3143 7.19896 32.1725 6.88065 31.9592C6.61376 31.8499 6.32095 31.8798 6.0406 31.892L6.0376 31.9421C5.99347 31.9452 5.90623 31.9513 5.86283 31.9543L5.85853 31.9977C5.8018 32.0239 5.74478 32.0514 5.68863 32.0808C5.35685 32.3521 4.98052 32.5598 4.61565 32.7829C4.17085 33.0486 3.73894 33.3352 3.30445 33.6181C3.20001 33.6885 3.09358 33.7568 2.98914 33.8296C2.85176 33.92 2.71553 34.0142 2.578 34.1065C2.39163 34.2378 2.20153 34.3649 2.01516 34.4975C1.93751 34.5483 1.8613 34.602 1.78366 34.6557C1.64126 34.7571 1.49958 34.8585 1.35604 34.9587C1.29602 34.9978 1.23614 35.0405 1.17626 35.0834C0.884879 35.2984 0.580034 35.4977 0.31401 35.7458C0.298825 35.7654 0.269458 35.8038 0.254273 35.8234C0.208432 35.8845 0.161874 35.9445 0.11546 36.0085C0.114887 36.0237 0.112881 36.0531 0.112451 36.0684C0.0171873 36.2377 -0.00788224 36.4344 0.00128604 36.6281C0.0342346 36.7283 0.0605934 36.8359 0.111878 36.9325C0.113024 36.9472 0.116033 36.9759 0.117895 36.9905C0.166172 37.0554 0.213876 37.1231 0.259717 37.1928L0.281635 37.2079C0.536484 37.4927 0.873132 37.6827 1.17382 37.915C1.23428 37.9553 1.29487 37.9968 1.35533 38.0408C1.50016 38.1386 1.64198 38.2412 1.78366 38.345C2.18506 38.6206 2.58345 38.9017 2.98986 39.1712C3.56288 39.5555 4.14091 39.9344 4.73312 40.2886C5.05989 40.4847 5.39181 40.6771 5.68806 40.9192C5.74378 40.9456 5.79994 40.9729 5.85609 41.0017L5.86469 41.0481C5.90824 41.05 5.99419 41.0549 6.03774 41.0567L6.04017 41.108C6.32124 41.1202 6.61405 41.1501 6.88093 41.0414C7.26285 40.7921 7.68875 40.623 8.0963 40.4231C8.19472 40.373 8.29357 40.3253 8.39184 40.2777C8.69611 40.1342 8.99924 39.9887 9.30179 39.8416C9.36783 39.8086 9.43373 39.7774 9.50106 39.7482C9.58285 39.7066 9.6648 39.6662 9.74731 39.629C9.82983 39.5874 9.91162 39.5477 9.99485 39.5104C10.5025 39.2666 11.0067 39.0136 11.5145 38.7692C11.5707 38.7381 11.6274 38.7087 11.6844 38.6812C12.4989 38.267 13.3237 37.8601 14.0643 37.32C15.0847 37.4006 16.1105 37.3529 17.1304 37.4318C17.0961 37.5088 17.0602 37.5864 17.0246 37.6665C17.0082 37.697 16.9745 37.7582 16.958 37.7887C16.6281 38.3807 16.27 38.9606 15.8349 39.4823C15.3107 40.0805 14.7265 40.6267 14.118 41.1387L14.1051 41.1577C13.9866 41.2468 13.8759 41.3465 13.7593 41.4388C12.6577 42.3179 11.4715 43.083 10.2692 43.8161C9.54145 44.2701 8.80885 44.7154 8.07682 45.1621C7.5293 45.5104 6.94139 45.8128 6.47409 46.2711C6.78868 46.3207 7.11071 46.3046 7.41885 46.2228C8.9256 45.8428 10.3988 45.3278 11.8085 44.6733C12.249 44.4742 12.6823 44.2579 13.1081 44.0287C13.809 43.6462 14.4829 43.2155 15.1275 42.7438C15.2087 42.6809 15.289 42.618 15.3708 42.5587C15.4746 42.4786 15.5742 42.3955 15.6775 42.3167C16.1084 41.9728 16.5055 41.5909 16.9117 41.2187L16.9185 41.174H16.9797L16.9778 41.1112L17.0229 41.1124C17.0381 41.0917 17.0693 41.0496 17.0854 41.0286C17.791 40.3041 18.327 39.437 18.823 38.5615C18.8543 38.5065 18.8859 38.4528 18.9172 38.4013C18.9776 38.2773 19.0405 38.1564 19.1053 38.0372C19.1835 37.8617 19.2518 37.6821 19.3068 37.4994C19.8214 37.4964 20.3352 37.5116 20.8498 37.5129C20.8163 38.2809 20.5339 39.0142 20.2065 39.7015C19.7647 40.5843 19.1928 41.3921 18.6403 42.2059C18.8536 42.1172 18.9917 41.9218 19.1793 41.794C20.2126 40.9307 21.2194 39.9775 21.8476 38.7689C22.0352 38.381 22.1915 37.9782 22.3036 37.5629C22.372 37.542 22.4417 37.5335 22.5124 37.5365C22.9095 37.5665 23.3088 37.5451 23.7064 37.5579C23.654 38.4237 23.4314 39.284 22.9929 40.0367C22.9323 40.1345 22.8711 40.2322 22.8064 40.3299C22.5772 40.6768 22.3372 41.0252 21.9918 41.2672C22.037 41.266 22.1262 41.2623 22.1715 41.2604C22.3829 41.1261 22.6243 41.0484 22.8393 40.9206C23.3172 40.6439 23.7473 40.2902 24.1312 39.8941C24.7599 39.2673 25.137 38.4296 25.3171 37.5694C25.8213 37.5577 26.3266 37.5731 26.8313 37.5718C26.877 38.4137 26.6571 39.2441 26.3459 40.0206C26.2892 40.1134 26.2366 40.2081 26.1933 40.3108C26.9845 39.8862 27.5914 39.1812 28.0244 38.4058C28.1546 38.1382 28.2248 37.848 28.341 37.5755C28.7358 37.5981 29.1329 37.5639 29.5269 37.6049C29.615 37.6097 29.7041 37.6178 29.7933 37.6268C29.8226 37.9647 29.8313 38.3081 29.7572 38.6423C29.687 38.9521 29.6747 39.2747 29.5508 39.5715C29.6333 39.5655 29.714 39.5435 29.7746 39.4849C30.3012 39.1378 30.6819 38.6131 30.9892 38.071C31.0607 37.9269 31.1247 37.7789 31.1797 37.6294C31.7224 37.6183 32.2656 37.6361 32.8088 37.6264C32.9133 37.9727 32.9359 38.3406 32.9101 38.701C32.9095 38.8166 32.8455 38.9149 32.7671 38.9967C32.6621 39.0945 32.5619 39.1989 32.461 39.3028C31.5078 40.2694 30.5552 41.2372 29.5984 42.1988C28.3732 42.3358 27.1586 42.5618 25.9341 42.7085C25.0817 42.8118 24.2312 42.9424 23.374 42.9926C23.3709 43.0188 23.3648 43.0714 23.3618 43.0977C23.5212 43.2083 23.734 43.1355 23.9159 43.1636C25.3353 43.3097 26.7529 43.4813 28.1657 43.6872C27.8368 43.9701 27.5528 44.3 27.2392 44.5995C26.7804 44.619 26.3208 44.6044 25.862 44.619C25.6627 44.6441 25.4625 44.6392 25.2626 44.6447C24.0374 44.6636 22.8141 44.7419 21.5909 44.806C21.1687 44.8365 20.747 44.8794 20.3236 44.8708C20.3077 44.9014 20.2752 44.9625 20.2595 44.993C20.4597 45.1055 20.6993 45.1005 20.9193 45.1525C22.5214 45.4849 24.1289 45.7971 25.7447 46.0605C25.7361 46.0837 25.7202 46.1307 25.7122 46.1539C25.4597 46.38 25.244 46.6427 24.996 46.8743C24.9227 46.9568 24.8029 46.884 24.715 46.873C22.0845 47.0027 19.4578 47.2214 16.831 47.4297C15.9925 47.497 15.1572 47.6026 14.3166 47.6289C14.3042 47.7053 14.33 47.759 14.3941 47.7914C15.4824 47.8354 16.5632 47.9918 17.6497 48.0724C19.5549 48.2324 21.4582 48.4158 23.3671 48.5264C23.1074 48.9139 22.725 49.2015 22.4371 49.5694C22.3014 49.7967 22.0405 49.6023 21.8414 49.6128C20.7806 49.5828 19.7108 49.537 18.6579 49.7032C18.3817 49.755 18.0553 49.7948 17.8989 50.0624C18.0506 50.3178 18.3579 50.3832 18.6212 50.4644C19.4442 50.6923 20.2808 50.8676 21.1173 51.0381C20.9743 51.2929 20.7702 51.5067 20.6137 51.7543C20.3394 51.5472 20.0315 51.3913 19.7094 51.274C19.6469 51.254 19.5847 51.2343 19.523 51.216C19.1385 51.1269 18.7414 51.114 18.3499 51.1525C17.6466 51.2888 16.9756 51.6389 16.521 52.201C15.8959 52.9298 15.6667 53.9679 15.9002 54.8972C15.9534 55.0622 16.012 55.2272 16.0792 55.3897C16.0939 55.4202 16.1244 55.4819 16.139 55.513C16.4525 56.1339 16.9811 56.6299 17.6104 56.9233C17.7724 56.9862 17.9366 57.0461 18.1029 57.0999C18.2032 57.1175 18.3033 57.1372 18.403 57.1654C19.2908 57.2801 20.2325 57.0161 20.8911 56.3997C21.4049 55.9514 21.7172 55.3129 21.848 54.6511C21.8888 54.2583 21.8705 53.8617 21.7868 53.4767C21.683 53.156 21.5571 52.8402 21.3664 52.5608C21.5783 52.4093 21.7972 52.2644 21.9878 52.0861C22.1845 52.8467 22.3142 53.6246 22.5365 54.3798C22.6171 54.6425 22.682 54.9493 22.9373 55.102C23.1866 54.9589 23.2386 54.6621 23.2869 54.4049C23.483 53.2537 23.4096 52.0831 23.3853 50.9234C23.733 50.5628 24.1308 50.2402 24.482 49.8785C24.639 52.0616 24.8291 54.2423 25.0258 56.4224C25.0851 57.1329 25.1914 57.8411 25.2036 58.5555C25.1847 58.6599 25.2921 58.6819 25.3729 58.6842C25.4206 57.4782 25.5832 56.28 25.6577 55.0757C25.8172 53.1205 25.9656 51.1653 26.0797 49.2071C26.0949 48.9017 26.1031 48.59 26.1587 48.2917C26.4005 48.0333 26.6725 47.8054 26.9096 47.5427C26.9291 47.5341 26.9676 47.5171 26.9873 47.5085C27.2248 48.9987 27.5176 50.4804 27.825 51.9579C27.8909 52.217 27.8817 52.4998 28.0077 52.7417C28.0382 52.7258 28.0999 52.6935 28.1303 52.6776C28.1188 52.1106 28.1989 51.5478 28.2177 50.9821C28.3062 49.476 28.3668 47.9674 28.3887 46.4589C28.4052 46.3073 28.3436 46.1161 28.4778 46.0068C28.745 45.7349 29.0315 45.4831 29.2894 45.202C29.3096 45.2003 29.3505 45.196 29.3712 45.1942C29.4366 45.7795 29.535 46.3612 29.5961 46.9484C29.6888 47.8196 29.8313 48.6891 29.8562 49.5658C29.8831 49.6356 29.9339 49.6562 30.0089 49.6275C30.15 47.8301 30.4337 46.0459 30.6938 44.263C30.7385 44.0535 30.6994 43.7969 30.8815 43.6459C31.9509 42.5792 33.0512 41.5435 34.1182 40.4743C34.2581 40.3454 34.3729 40.1852 34.5398 40.0894C34.9058 40.0722 35.2767 40.1369 35.6181 40.2701C35.6113 40.7656 35.6304 41.2611 35.6132 41.7573C35.5235 41.7775 35.4348 41.8002 35.3469 41.8283C35.2058 41.8838 35.0664 41.9461 34.9296 42.0128C34.3901 42.32 33.8658 42.6982 33.5194 43.2232C33.4569 43.2818 33.4326 43.3636 33.4296 43.4504C33.6964 43.3368 33.9874 43.3202 34.2683 43.261C34.715 43.159 35.1818 43.1607 35.6272 43.2683C35.6347 43.5176 35.6254 43.7675 35.6362 44.0181C35.6529 44.2307 35.6882 44.45 35.6241 44.6608C35.5825 44.6644 35.4994 44.6719 35.4579 44.6755C35.3742 44.6968 35.2904 44.7194 35.2068 44.7409L35.1688 44.7592C34.8536 44.8496 34.5522 44.9866 34.2762 45.1638C33.6364 45.5872 33.0516 46.1218 32.6906 46.8093C32.7895 46.7621 32.8868 46.712 32.9797 46.6559C33.8284 46.3069 34.7475 46.0998 35.6683 46.1787C35.6676 46.6613 35.6762 47.1446 35.6702 47.6279C35.5149 47.6566 35.3622 47.6964 35.2088 47.7337C34.7273 47.8674 34.2501 48.0368 33.8261 48.3055C33.1607 48.7246 32.6235 49.3234 32.1928 49.9761C32.0078 50.2418 31.9063 50.5535 31.7407 50.8301C31.7389 50.8748 31.7353 50.9652 31.734 51.0099C31.9758 50.6639 32.3236 50.4238 32.672 50.1948C32.7673 50.1288 32.8657 50.0677 32.9647 50.009C33.7858 49.5318 34.7347 49.3052 35.6807 49.2893C35.6812 49.7353 35.6716 50.1813 35.6574 50.628C35.5474 50.6585 35.4387 50.6927 35.3288 50.7251C34.9542 50.8424 34.5852 50.9799 34.2326 51.1546C33.0239 51.7808 32.0714 52.789 31.2081 53.8217C31.0792 54.0081 30.8848 54.1473 30.7955 54.3612C31.0969 54.1864 31.3633 53.9585 31.6572 53.7721C32.8511 52.9748 34.1538 52.2258 35.6173 52.1175C35.616 52.6399 35.6148 53.1623 35.6087 53.6847C35.5201 53.6958 35.4333 53.7153 35.3472 53.7392C35.2194 53.7892 35.0917 53.8412 34.9652 53.8955C34.8443 53.9591 34.7234 54.0225 34.6012 54.0848C34.3915 54.2029 34.1832 54.3232 33.9761 54.4454C33.8251 54.5376 33.6731 54.628 33.524 54.7234C32.9727 55.0735 32.4411 55.459 31.9732 55.9167C31.9523 55.932 31.9103 55.9625 31.8889 55.9779L31.8901 56.0225L31.829 56.0237L31.8265 56.069C31.8069 56.0849 31.7678 56.1167 31.7483 56.1318C31.3816 56.518 31.0199 56.909 30.6851 57.324C30.605 57.4259 30.5212 57.5255 30.4418 57.6306C29.6164 58.7066 28.9259 59.8828 28.3619 61.1159C27.8181 62.2908 27.3573 63.5042 27.0042 64.7506C26.8496 65.3281 26.618 65.9183 26.7304 66.5268C26.9858 66.2744 27.1857 65.9725 27.3775 65.672C27.9867 64.6956 28.5739 63.7064 29.1855 62.732C29.7111 61.8797 30.239 61.0273 30.8281 60.2164C31.0657 59.8858 31.3107 59.5602 31.5625 59.2412C31.6602 59.1141 31.7697 58.9968 31.8674 58.8716C32.2059 58.4794 32.5511 58.0926 32.9203 57.7289C33.6254 56.9786 34.5041 56.4232 35.4047 55.9393C35.4737 55.9105 35.5441 55.8849 35.6143 55.8617C35.6259 56.8869 35.6095 57.9134 35.6822 58.9375C35.3901 59.3364 35.1371 59.763 34.9001 60.1974C34.6703 60.6232 34.4522 61.0546 34.2342 61.4872C33.985 61.9924 33.7367 62.4984 33.491 63.0062C33.452 63.0862 33.4128 63.1688 33.3738 63.253C33.3586 63.2842 33.328 63.3472 33.3127 63.3783C33.2619 63.4846 33.2107 63.5909 33.1599 63.6998C33.0231 63.976 32.8936 64.2557 32.7591 64.533C32.7439 64.5648 32.7144 64.6285 32.6998 64.6601C32.6596 64.7402 32.6192 64.8214 32.5795 64.9045C32.5483 64.9687 32.517 65.0347 32.4867 65.1037C32.315 65.4435 32.1736 65.8015 31.9605 66.1204C31.8517 66.3868 31.8804 66.6795 31.8933 66.9611L31.9452 66.9617C31.947 67.0051 31.9513 67.0919 31.9532 67.1359L31.9996 67.1432C32.0265 67.1976 32.0539 67.2538 32.082 67.3118C32.2781 67.5501 32.4401 67.814 32.6008 68.0786C32.9167 68.6107 33.244 69.1369 33.5943 69.6483L33.6072 69.702C33.6439 69.7411 33.6818 69.7827 33.7202 69.8266L33.7331 69.8792C34.0466 70.3204 34.3452 70.7731 34.6575 71.2167C34.759 71.3584 34.8622 71.5002 34.9607 71.6469C35.1225 71.8742 35.2887 72.0984 35.4464 72.33C35.5466 72.4528 35.6487 72.575 35.7513 72.6985L35.8008 72.7003L35.8076 72.7413C35.8761 72.786 35.9432 72.8317 36.0111 72.883C36.0258 72.8843 36.0545 72.8866 36.0684 72.8878C36.148 72.9421 36.2487 72.949 36.3428 72.9655L36.3501 72.9997C36.4516 72.9973 36.5536 72.9973 36.6564 73.0003L36.6589 72.9649C36.7516 72.9471 36.8538 72.9466 36.932 72.8861C36.9467 72.8855 36.9771 72.8831 36.9919 72.8825C37.0585 72.8318 37.1257 72.786 37.1947 72.7414L37.2095 72.7194C37.2735 72.6565 37.3371 72.5942 37.4 72.5324C37.6219 72.2428 37.827 71.941 38.0435 71.6477C38.1412 71.5011 38.245 71.3592 38.3458 71.2163C38.397 71.1392 38.4498 71.0642 38.501 70.9902C38.5914 70.8606 38.6813 70.7317 38.7711 70.604C38.812 70.5417 38.8536 70.4794 38.8957 70.4214C38.9875 70.284 39.0804 70.1489 39.1708 70.0121C39.2007 69.967 39.2312 69.9235 39.2624 69.8826C39.3011 69.8172 39.3419 69.7554 39.3835 69.6957C39.8233 69.0413 40.231 68.3655 40.6415 67.6922C40.7314 67.562 40.8219 67.4331 40.9213 67.3115C40.9488 67.2535 40.9771 67.1967 41.0051 67.1423L41.0344 67.135C41.0534 67.0648 41.0766 66.9975 41.1041 66.934C41.1309 66.6616 41.1455 66.3781 41.0429 66.1201C40.8547 65.8402 40.7245 65.5286 40.5767 65.2287C40.5454 65.1602 40.5138 65.0924 40.4838 65.0288C40.2669 64.5871 40.0585 64.141 39.8435 63.6993C39.7849 63.574 39.7256 63.4507 39.6657 63.3291C39.3932 62.7523 39.1096 62.1822 38.8298 61.6098C38.7883 61.5266 38.7473 61.4448 38.7075 61.3647C38.5089 60.9738 38.3108 60.5838 38.1038 60.1989C37.8667 59.7633 37.6124 59.3374 37.3205 58.9366C37.4041 57.9161 37.3516 56.8903 37.4347 55.8706C37.5123 55.9035 37.5899 55.9396 37.6687 55.9769C37.9186 56.1131 38.1663 56.2543 38.4094 56.4046C39.3154 56.933 40.0744 57.668 40.7637 58.4515C40.8841 58.5927 41.0154 58.7246 41.1346 58.8689C41.2305 58.9972 41.3436 59.1127 41.4408 59.2422C42.1311 60.116 42.7654 61.0336 43.3508 61.9812C44.0437 63.0835 44.7183 64.1974 45.399 65.3076C45.6643 65.7305 45.9159 66.1715 46.2729 66.5265C46.3308 66.1904 46.2991 65.8478 46.21 65.5215C45.8764 64.2317 45.4565 62.9613 44.9194 61.7417C44.8309 61.5299 44.7325 61.3233 44.6402 61.1149C44.0231 59.7639 43.2525 58.4803 42.3183 57.3242C42.0105 56.9375 41.6695 56.5806 41.3401 56.2135L41.2974 56.2055V56.145L41.2355 56.1456L41.2368 56.0833L41.1745 56.0851L41.1763 56.0223L41.1335 56.0228C41.1126 56.0032 41.0723 55.9642 41.0523 55.9446L41.0536 55.9018L41.0058 55.8988C40.2476 55.1527 39.3212 54.6095 38.4029 54.0866C38.2806 54.0229 38.1591 53.9601 38.0388 53.8965C37.8627 53.8182 37.6836 53.7486 37.5004 53.6942C37.4985 53.1791 37.5132 52.6652 37.5144 52.152C38.0137 52.1647 38.4982 52.309 38.965 52.477C40.1455 52.9151 41.1739 53.6618 42.2072 54.362C42.1174 54.1493 41.9254 54.0082 41.7966 53.8237C40.9332 52.7893 39.9794 51.7811 38.7695 51.1537C38.4018 50.9711 38.0148 50.8324 37.6245 50.7095C37.4901 50.6825 37.5402 50.5194 37.5292 50.426C37.5805 50.0514 37.542 49.6721 37.5599 49.2962C38.5605 49.3525 39.5565 49.65 40.3827 50.228C40.7115 50.4492 41.0395 50.6801 41.2691 51.0102C41.268 50.9655 41.2643 50.8775 41.2626 50.833C41.1044 50.5665 41.0064 50.269 40.8324 50.0117C40.3687 49.2945 39.7716 48.6449 39.0279 48.213C38.6393 47.9985 38.2184 47.8544 37.7944 47.7309C37.7192 47.715 37.6452 47.7011 37.5712 47.6888C37.5603 47.1823 37.5755 46.6765 37.5732 46.1711C38.4158 46.1266 39.2468 46.3429 40.0221 46.6563C40.1149 46.7119 40.2109 46.7619 40.3116 46.809C39.8883 46.0184 39.1851 45.4093 38.4076 44.9803C38.376 44.9655 38.3131 44.9363 38.2813 44.921C38.0532 44.8153 37.8053 44.7646 37.5779 44.6613C37.5859 44.1761 37.5877 43.6922 37.6256 43.2089C37.9673 43.1789 38.3137 43.1703 38.6503 43.2461C38.9576 43.3145 39.2783 43.3279 39.5729 43.4501C39.571 43.3646 39.5455 43.2839 39.4862 43.2259C39.1385 42.7011 38.6155 42.3205 38.0746 42.0149C37.9297 41.9416 37.7819 41.8762 37.6303 41.823C37.6206 41.2792 37.6371 40.7361 37.6278 40.1928C37.9743 40.0884 38.3415 40.0657 38.7007 40.0914C38.8181 40.0897 38.9172 40.155 38.9977 40.2356C39.1169 40.3603 39.2427 40.4794 39.3662 40.6016C40.2632 41.4764 41.1418 42.3699 42.046 43.2374C42.0986 43.2892 42.153 43.342 42.2013 43.4037C42.3375 44.6299 42.5649 45.8464 42.7116 47.0733C42.813 47.9219 42.9469 48.7682 42.9908 49.6224C43.078 49.6725 43.1539 49.6102 43.1532 49.5174C43.1564 48.8825 43.2602 48.2549 43.3269 47.6251C43.4313 46.6945 43.5536 45.7664 43.6891 44.8408C43.9764 45.1634 44.3014 45.4506 44.6014 45.7621C44.6204 46.2009 44.6081 46.6401 44.6197 47.08C44.6674 47.9929 44.6588 48.9099 44.7254 49.8234C44.7487 50.7754 44.8604 51.7242 44.8726 52.6767C44.9025 52.6932 44.9631 52.7263 44.993 52.7427C45.1102 52.5423 45.1018 52.2998 45.1544 52.0804C45.488 50.4783 45.7984 48.8708 46.0623 47.2559C46.0861 47.2651 46.1338 47.2821 46.1577 47.2907C46.3838 47.5418 46.6452 47.7589 46.8768 48.0063C46.9612 48.0764 46.8866 48.1956 46.875 48.2862C47.0052 50.9172 47.2234 53.5449 47.4322 56.1717C47.4996 57.01 47.6046 57.8445 47.6316 58.6852C47.9023 58.7011 47.7739 58.3529 47.8087 58.1909C48.0763 55.3394 48.3476 52.4853 48.5291 49.6277C48.9196 49.9094 49.2256 50.2906 49.6014 50.5924C49.7767 50.7128 49.621 50.9364 49.621 51.1033C49.5746 52.1829 49.5404 53.2729 49.706 54.3458C49.7584 54.6207 49.7977 54.9476 50.0658 55.1022C50.3329 54.939 50.3933 54.6134 50.4784 54.3384C50.7002 53.5282 50.8736 52.7058 51.0405 51.8833C51.2947 52.0269 51.5097 52.2296 51.7567 52.3868C51.6461 52.5378 51.5476 52.6978 51.456 52.8622C51.1729 53.4114 51.0851 54.0409 51.1547 54.6524C51.2071 54.8589 51.2541 55.0691 51.3343 55.2695C51.7101 56.2739 52.6652 57.0085 53.721 57.1648C54.0136 57.1917 54.3089 57.1947 54.602 57.1661C54.8709 57.1062 55.1385 57.0342 55.3909 56.9211C55.4221 56.9064 55.4843 56.8764 55.5155 56.8618C56.1369 56.5477 56.633 56.0193 56.9257 55.39C57.4549 54.262 57.1721 52.839 56.2812 51.9762C55.8375 51.5425 55.2582 51.2723 54.6534 51.1527C54.1969 51.1061 53.7308 51.1325 53.2915 51.2723C53.0384 51.3713 52.7885 51.4819 52.5617 51.6347C52.4096 51.4221 52.2685 51.2008 52.0853 51.0139C52.9407 50.7933 53.8182 50.6552 54.6588 50.3784C54.8263 50.3173 55.0176 50.2403 55.089 50.0626C55.0127 49.8811 54.8227 49.8077 54.6461 49.7668C53.8848 49.5817 53.0965 49.6055 52.3199 49.5608L52.2803 49.5877C51.8281 49.5828 51.3772 49.6115 50.9256 49.6171C50.8413 49.5652 50.7845 49.4808 50.7179 49.4124C50.455 49.0995 50.1551 48.8215 49.8893 48.5123C50.0733 48.5002 50.2578 48.491 50.4436 48.488L50.4821 48.4629C52.3831 48.3518 54.2784 48.1574 56.1762 47.9992C56.9718 47.9345 57.7636 47.8142 58.5622 47.797C58.6624 47.8091 58.6923 47.7066 58.6874 47.6295C58.4627 47.6166 58.2371 47.6209 58.0142 47.5936C54.8803 47.3119 51.742 47.0711 48.6026 46.881C48.4731 46.8554 48.3087 46.9018 48.222 46.7766C47.9805 46.5218 47.7301 46.2768 47.493 46.0195C49.042 45.7671 50.5818 45.4629 52.1184 45.1459C52.3268 45.0976 52.5547 45.1012 52.7447 44.9932C52.7284 44.9627 52.6951 44.9015 52.6788 44.871C52.3573 44.8728 52.0366 44.86 51.7176 44.8289C49.8668 44.7054 48.013 44.6352 46.159 44.6053C46.0808 44.6083 46.0332 44.5398 45.9812 44.4978C45.6953 44.2138 45.4307 43.9058 45.127 43.6412C45.8554 43.5495 46.5819 43.4414 47.312 43.362C48.0472 43.2869 48.7791 43.1597 49.5197 43.1524C49.6156 43.1622 49.6455 43.0608 49.6414 42.9868C48.8611 42.9581 48.0886 42.8304 47.3139 42.74C46.2495 42.6117 45.1913 42.4406 44.1311 42.2885C43.9784 42.2622 43.7987 42.2738 43.6838 42.1546C43.1963 41.6645 42.7099 41.1733 42.2327 40.6735C42.213 40.6576 42.1739 40.6258 42.1543 40.6094L42.147 40.5807C41.5886 40.0143 41.0355 39.443 40.4734 38.8809C40.3469 38.7393 40.1831 38.6268 40.0915 38.4599C40.0718 38.0939 40.1392 37.7236 40.2724 37.3834C40.7673 37.3889 41.2628 37.3712 41.7578 37.3883C41.8102 37.6271 41.9056 37.8538 42.0156 38.0726C42.3218 38.6133 42.7018 39.1369 43.2273 39.484C43.2866 39.542 43.3672 39.5665 43.4515 39.5727C43.4129 39.4443 43.3568 39.3203 43.3409 39.1883C43.2915 38.801 43.1736 38.421 43.1876 38.028C43.1852 37.8081 43.2286 37.593 43.2653 37.3791C43.4968 37.3639 43.7283 37.3742 43.9606 37.3651C44.1934 37.3472 44.4329 37.3106 44.6633 37.3767C44.6663 37.4182 44.673 37.502 44.6762 37.5436C44.7005 37.6224 44.7232 37.7043 44.7469 37.7874C44.7654 37.8497 44.7837 37.9131 44.8014 37.9792C44.8588 38.1209 44.9187 38.2632 44.9786 38.4062C45.4123 39.181 46.0186 39.8872 46.8104 40.3107C46.7647 40.2087 46.7138 40.1134 46.6571 40.0205C46.31 39.1719 46.0998 38.2535 46.1818 37.3333C46.6645 37.3339 47.1472 37.3247 47.6305 37.3314C47.7099 37.7402 47.8296 38.1409 47.9776 38.5308C48.3661 39.5053 49.1457 40.2703 50.0141 40.8312C50.2707 41.0049 50.5689 41.1007 50.833 41.2608C50.8775 41.2627 50.9669 41.2664 51.0113 41.2676C50.6662 41.0251 50.4273 40.6767 50.1968 40.3303C49.5937 39.4505 49.3077 38.3806 49.292 37.3205C49.7372 37.3205 50.1834 37.3297 50.6294 37.3445C50.7406 37.7166 50.8524 38.0898 51.0083 38.4466C51.5912 39.7956 52.6838 40.8333 53.7884 41.7649C53.9883 41.9006 54.1385 42.1077 54.3642 42.2061C54.2811 42.0375 54.1539 41.8987 54.0507 41.7442C53.6658 41.2023 53.3108 40.6383 52.9856 40.0584C52.5242 39.236 52.2006 38.328 52.1198 37.3847C52.6423 37.3847 53.1647 37.3871 53.687 37.3926C53.7018 37.4792 53.7188 37.5673 53.7414 37.6566C53.7824 37.758 53.824 37.8596 53.8679 37.9633C53.8979 38.0269 53.9297 38.0922 53.9615 38.1601C54.0029 38.2383 54.0451 38.3178 54.0873 38.399C54.5283 39.1829 54.9933 39.9594 55.5732 40.6505C55.9993 41.1399 56.471 41.5877 56.9627 42.01C57.0844 42.1103 57.2016 42.2177 57.3257 42.3174C57.5077 42.4604 57.6904 42.6034 57.8756 42.7439C58.5068 43.2034 59.1631 43.6299 59.8498 44.0026C60.2635 44.2318 60.6887 44.4382 61.117 44.6392C61.4404 44.7858 61.766 44.9287 62.0935 45.0682C62.9513 45.4275 63.8313 45.7312 64.7252 45.989C65.3124 46.146 65.9112 46.3837 66.5289 46.2714C66.2037 45.9445 65.8055 45.7055 65.4175 45.4636C64.2711 44.7597 63.1213 44.0639 61.9823 43.349C61.0352 42.7631 60.1174 42.1301 59.2444 41.4391C58.5062 40.839 57.7968 40.1979 57.1688 39.4826C56.7025 38.9259 56.3303 38.2996 55.9761 37.6685C55.9351 37.5744 55.8971 37.4815 55.8636 37.388C56.8883 37.3753 57.9147 37.3942 58.9383 37.3197C59.3746 37.638 59.8427 37.9093 60.3174 38.1664C60.7311 38.3827 61.1454 38.5972 61.5646 38.8043C62.0038 39.0219 62.445 39.235 62.8857 39.4526C62.9516 39.4813 63.0182 39.5125 63.0866 39.5455C63.2247 39.6126 63.3634 39.6798 63.5027 39.7496C63.568 39.7777 63.634 39.8095 63.7019 39.8418C64.0202 39.9983 64.3423 40.1467 64.6606 40.305C64.7669 40.3539 64.875 40.4052 64.9838 40.4554C65.0395 40.4823 65.0962 40.5109 65.1538 40.5415C65.4819 40.6972 65.8198 40.839 66.1228 41.0425C66.3825 41.1451 66.6667 41.1268 66.9399 41.1054C67.0138 41.0682 67.0902 41.0371 67.1665 41.0059C67.2264 40.9643 67.2887 40.9269 67.3503 40.8885C67.4621 40.8042 67.5771 40.7235 67.6913 40.6436C68.6183 40.0856 69.533 39.5084 70.4244 38.8954C70.6909 38.7133 70.9529 38.5252 71.2201 38.3449C71.3612 38.2423 71.503 38.1396 71.6484 38.0431C71.8763 37.8799 72.1018 37.7132 72.3333 37.5555C72.4566 37.454 72.579 37.352 72.7023 37.2512V37.1992L72.7536 37.2005C72.7817 37.1387 72.8103 37.0796 72.8403 37.0214L72.8953 37.0128C72.894 36.9934 72.8917 36.9535 72.8898 36.9333C72.9423 36.8375 72.9668 36.7299 72.9999 36.6291C72.9987 36.5411 72.9987 36.4549 73 36.3712ZM53.5107 17.5927C54.209 17.3618 55.0187 17.7637 55.3218 18.4205C55.5301 18.852 55.5497 19.4117 55.2436 19.8039C54.7107 20.4545 53.5864 20.4925 53.0353 19.8449C52.4315 19.1838 52.6387 17.9117 53.5107 17.5927ZM19.8791 19.9384C19.6359 20.1785 19.2992 20.2842 18.9662 20.3179C18.9205 20.3179 18.8294 20.3173 18.7835 20.3173C18.2996 20.2617 17.7835 20.0093 17.6061 19.5271C17.3421 18.8013 17.7784 17.9428 18.4792 17.655C18.9003 17.4724 19.4313 17.4657 19.8039 17.7595C20.4448 18.282 20.4938 19.3757 19.8791 19.9384ZM11.6254 36.7922C11.524 36.8332 11.4225 36.8753 11.3204 36.9169C11.1774 36.9773 11.0339 37.0385 10.8903 37.0989C10.7479 37.1594 10.6061 37.223 10.4626 37.2829C10.2794 37.3629 10.0966 37.4454 9.91148 37.5224C9.77138 37.5865 9.63027 37.6507 9.48802 37.7112C9.12201 37.8755 8.7547 38.0368 8.38811 38.2011C8.18713 38.289 7.98729 38.3807 7.78688 38.4711C7.42086 38.6324 7.05599 38.7967 6.69084 38.9606C6.47266 39.0242 6.20621 39.2991 6.0045 39.07C5.78891 38.8977 5.57016 38.7302 5.35083 38.5641C5.28236 38.5103 5.2146 38.4565 5.14612 38.4063C4.3078 37.7563 3.44197 37.1416 2.59749 36.5C3.42922 35.8657 4.28459 35.2633 5.11002 34.6212C5.20343 34.5497 5.29454 34.4771 5.38751 34.408C5.46816 34.3457 5.54767 34.2834 5.62903 34.2241C5.79822 34.0982 5.95709 33.9595 6.12928 33.8379C6.24173 33.8049 6.34258 33.8899 6.44401 33.9266C6.68353 34.0366 6.92606 34.1434 7.16687 34.2534C7.575 34.4319 7.9807 34.6163 8.38754 34.7985C8.59784 34.8908 8.80627 34.9862 9.017 35.0777C9.13318 35.1303 9.2505 35.1816 9.36711 35.2353C9.57612 35.3221 9.78012 35.4199 9.98912 35.509C10.1468 35.5775 10.3044 35.6471 10.4627 35.7167C10.6083 35.7766 10.7518 35.8402 10.8965 35.9037C11.037 35.9604 11.1763 36.0204 11.3151 36.0822C11.4172 36.1207 11.5198 36.1628 11.6212 36.2068C11.8705 36.3033 12.118 36.4036 12.3686 36.4976C12.1222 36.5991 11.8733 36.6932 11.6254 36.7922ZM19.7313 55.2933C19.1819 55.6396 18.428 55.4546 17.988 55.0122C17.5455 54.5716 17.3611 53.8182 17.7088 53.2703C18.0333 52.798 18.6712 52.5999 19.2193 52.7234C19.8149 52.8291 20.2921 53.3839 20.302 53.9906L20.3295 54.0272C20.3123 54.5038 20.1473 55.0184 19.7313 55.2933ZM35.5122 9.98883C35.4388 9.81951 35.3612 9.65334 35.2904 9.48474C35.2086 9.30138 35.1254 9.11945 35.0466 8.9361C34.7906 8.37213 34.5425 7.80458 34.2876 7.2399C34.1973 7.03033 34.0977 6.82505 34.0109 6.61491C33.951 6.45605 33.8238 6.30936 33.8374 6.13402C33.957 5.95812 34.1007 5.79925 34.2259 5.62693C34.3586 5.4546 34.4905 5.2817 34.623 5.11009C35.2646 4.2834 35.8676 3.42793 36.5025 2.59709C37.1355 3.42936 37.7386 4.28412 38.3814 5.10951C38.4503 5.20119 38.522 5.2923 38.5923 5.3857C38.7622 5.60501 38.9295 5.82633 39.103 6.04378C39.2718 6.21725 39.0511 6.43599 38.9943 6.61577C38.9044 6.82405 38.8066 7.03004 38.7164 7.23947C38.6344 7.42211 38.5519 7.60489 38.4705 7.78868C38.3882 7.9719 38.3056 8.15525 38.2243 8.33918C38.1339 8.53715 38.0472 8.73698 37.9574 8.93552C37.8792 9.11945 37.7954 9.3021 37.7124 9.48545C37.6335 9.66996 37.5504 9.85331 37.4705 10.0378C37.4099 10.1795 37.347 10.32 37.2834 10.4618C37.2242 10.6054 37.1625 10.7483 37.1007 10.892C37.0416 11.0338 36.9804 11.1749 36.9192 11.3173C36.7763 11.6687 36.6333 12.0199 36.5014 12.3762C36.4482 12.2259 36.3883 12.0787 36.3326 11.9314C36.2501 11.7261 36.167 11.522 36.0839 11.3179C35.896 10.8737 35.7053 10.4306 35.5122 9.98883ZM37.4931 63.0115C37.6454 63.3629 37.8035 63.7117 37.9581 64.0629C38.0455 64.2622 38.1359 64.4613 38.2263 64.6611C38.3144 64.8701 38.4139 65.0741 38.5038 65.2844C38.5857 65.467 38.6701 65.6504 38.7502 65.8367C38.8314 66.0175 38.9151 66.1979 38.9938 66.3818C39.0501 66.5626 39.27 66.7789 39.104 66.9568C38.9206 67.1846 38.7429 67.4168 38.5655 67.6503C38.5045 67.7291 38.4416 67.8084 38.3817 67.8904C37.7389 68.7159 37.1364 69.5718 36.5016 70.4041C35.8686 69.5712 35.2648 68.7165 34.6227 67.8911C34.4204 67.6241 34.2163 67.3596 34.0116 67.0956C33.9457 66.9875 33.7886 66.8958 33.8448 66.7534C33.8834 66.6417 33.9377 66.5402 33.9842 66.435C34.0849 66.2096 34.1902 65.9872 34.2855 65.7611C34.3692 65.5772 34.4543 65.394 34.5323 65.2088C34.6247 65.0109 34.7121 64.8111 34.8006 64.6124C34.8746 64.445 34.9509 64.2795 35.0244 64.1126C35.1129 63.9122 35.2003 63.7124 35.2926 63.5144C35.3708 63.3292 35.4526 63.146 35.5327 62.9632C35.6067 62.7933 35.6824 62.6254 35.7527 62.4561C35.8689 62.1988 35.9739 61.938 36.0856 61.6801C36.1253 61.5763 36.1674 61.4749 36.211 61.3746C36.3087 61.1266 36.4021 60.8779 36.5055 60.6328C36.6356 60.9848 36.7786 61.3325 36.9198 61.6807C36.9815 61.8231 37.0421 61.966 37.1013 62.1126C37.1632 62.252 37.2259 62.3925 37.2852 62.536C37.3533 62.6943 37.4229 62.8526 37.4931 63.0115ZM38.601 37.8859C38.3145 38.1812 38.0681 38.5343 37.6839 38.7133C37.2196 38.9858 36.669 39.0096 36.1454 38.9828C35.656 38.91 35.1714 38.7066 34.8329 38.337C34.3025 37.9154 33.9928 37.2317 34.0179 36.5559C33.9689 36.0396 34.1351 35.5172 34.426 35.0943C34.6979 34.7968 34.9503 34.4613 35.325 34.2854C35.7887 34.0135 36.3385 33.9892 36.8622 34.0184C37.3497 34.0911 37.8336 34.294 38.1717 34.663C38.699 35.084 39.01 35.7621 38.9862 36.4367C39.0415 36.9481 38.8668 37.4546 38.601 37.8859ZM52.9808 53.2208C53.2136 52.9152 53.5797 52.7234 53.9616 52.6965C54.5713 52.6256 55.2856 52.9689 55.4396 53.6014C55.6009 54.2802 55.2117 55.0275 54.5829 55.3182C54.1516 55.5266 53.5919 55.5474 53.2002 55.2413C52.619 54.763 52.5171 53.8128 52.9808 53.2208ZM67.6529 38.5641C67.5593 38.6325 67.4682 38.7046 67.3765 38.7761C67.1804 38.8928 67.0271 39.1116 66.8083 39.1683C66.449 39.0467 66.114 38.8567 65.7615 38.7155C65.1964 38.4589 64.6282 38.209 64.0624 37.9543C63.8797 37.8755 63.6988 37.7924 63.5186 37.7112C63.3485 37.6397 63.1823 37.5615 63.0143 37.49C62.8562 37.4209 62.6991 37.3506 62.542 37.2823C62.3977 37.223 62.2561 37.162 62.115 37.0989C61.8693 36.9951 61.6224 36.8942 61.3775 36.7915C61.1299 36.6944 60.885 36.5924 60.635 36.5039C60.8807 36.4012 61.1299 36.3059 61.3782 36.2086C61.4783 36.1647 61.5792 36.1231 61.6818 36.0839C61.8241 36.0216 61.9671 35.96 62.1114 35.9012C62.4126 35.7704 62.715 35.6428 63.0144 35.509C63.7489 35.1858 64.4815 34.8601 65.2124 34.5296C65.3969 34.4508 65.5796 34.3683 65.7616 34.2841C65.989 34.1887 66.2122 34.0837 66.4369 33.9829C66.5995 33.9303 66.8011 33.736 66.9581 33.8979C67.2551 34.1331 67.5576 34.3622 67.8582 34.5938C68.6966 35.2446 69.5617 35.8587 70.4074 36.4996C69.4933 37.193 68.5571 37.8571 67.6529 38.5641Z" fill="var(--fill-0, #C08181)"/>
</g>
<defs>
<clipPath id="clip0_0_16">
<rect width="73" height="73" fill="white"/>
</clipPath>
</defs>
</svg>
