<svg preserveAspectRatio="none" width="100%" height="100%" overflow="visible" style="display: block;" viewBox="0 0 91 91" fill="none" xmlns="http://www.w3.org/2000/svg">
<g id="spa-svgrepo-com 1">
<path id="Vector" d="M85.9604 74.62H56.42V81.9H86.2625C88.7159 81.9 89.18 79.7615 89.18 79.7615V77.9961C89.18 77.9961 89.1582 74.62 85.9604 74.62ZM81.8745 73.1822C85.904 73.1822 89.18 69.9026 89.18 65.8622C89.18 61.809 85.904 58.5403 81.8745 58.5403C77.8505 58.5403 74.5836 61.8108 74.5836 65.8622C74.5836 69.9007 77.8505 73.1822 81.8745 73.1822ZM66.4882 72.8C70.3212 72.8 73.4042 70.0991 73.4042 66.2717C73.4024 62.4515 70.3084 60.4477 66.5046 60.4185L56.42 61.6962V72.8H66.4882ZM33.7119 25.3581C38.1872 25.3581 41.8072 21.7181 41.8072 17.2281C41.8072 12.7382 38.1872 9.1 33.7119 9.1C29.2401 9.1 25.6147 12.7382 25.6147 17.2281C25.6147 21.7181 29.2401 25.3581 33.7119 25.3581ZM25.4454 51.668L25.3726 51.5624L21.7035 43.0193L21.698 60.06H32.6635L35.0587 57.512L28.5631 55.0113C27.0234 54.4326 25.9295 53.1222 25.4454 51.668ZM27.7696 50.9018C28.1245 51.6989 28.7815 52.345 29.6078 52.6417L42.1239 57.2809C43.7255 57.9888 45.5965 57.2536 46.299 55.6465C47.0015 54.0285 46.2717 52.1448 44.6683 51.4405L33.1204 47.0798L29.5532 38.5239L31.8791 37.6576L34.9021 44.9886L43.68 48.2427V39.2847L48.3392 42.0566L50.6615 53.7555C51.2312 55.4263 53.0348 56.3053 54.6983 55.7284C56.3454 55.1569 57.2208 53.3351 56.6548 51.6716L54.0522 40.404C53.8811 39.7725 53.5189 39.221 53.0293 38.8079C51.6953 37.33 44.9485 29.7861 44.4681 29.282C43.7637 28.5758 42.153 27.3 39.11 27.3H28.19C21.9838 27.3 20.7899 33.6336 22.0584 36.855L27.7696 50.9018ZM54.6 61.88H5.39994C3.60906 61.88 1.82 62.8901 1.82 65.1123V81.9H54.6V61.88Z" fill="var(--fill-0, #7DB88A)"/>
</g>
</svg>
