<svg preserveAspectRatio="none" width="100%" height="100%" overflow="visible" style="display: block;" viewBox="0 0 102 102" fill="none" xmlns="http://www.w3.org/2000/svg">
<g id="spa-solid-svgrepo-com 1">
<path id="Vector" d="M51 12.75C41.7114 12.75 34.2158 20.1335 33.668 29.2852C25.4377 27.6665 16.9087 31.9497 13.8457 40.043C10.6582 48.46 14.6675 57.6614 22.5117 61.6582C17.2947 69.0044 18.3904 79.2766 25.4004 85.166C32.7839 91.3791 43.9028 90.3581 50.1035 82.9746C50.4895 82.5139 50.5891 81.8914 50.9004 81.3809C51.2366 81.9287 51.3735 82.5762 51.7969 83.0742C58.01 90.4578 69.1165 91.4788 76.5 85.2656C83.5225 79.3513 84.5435 69.104 79.2891 61.7578C87.2703 57.8108 91.3667 48.5222 88.1543 40.043C85.0913 31.9497 76.5498 27.6665 68.332 29.2852C67.7842 20.1335 60.2886 12.75 51 12.75ZM51 19.125C57.2007 19.125 62.1562 24.0806 62.1562 30.2812C62.1562 30.7793 61.9446 31.6758 61.5586 32.7715C61.5461 32.8088 61.571 32.8337 61.5586 32.8711L52.0957 46.3184C53.0918 43.0312 54.1875 39.2959 54.1875 38.25C54.1875 36.4944 52.7556 35.0625 51 35.0625C49.2444 35.0625 47.8125 36.4944 47.8125 38.25C47.8125 39.2585 48.6841 42.7947 49.5059 46.0195L40.2422 32.0742C40.0305 31.3396 39.8437 30.6797 39.8437 30.2812C39.8437 24.0806 44.7993 19.125 51 19.125ZM29.8828 35.0625C31.3396 35.0127 32.8213 35.2119 34.2656 35.7598C34.5146 35.8469 34.9255 36.1831 35.4609 36.5566C35.4983 36.5815 35.5232 36.5317 35.5605 36.5566L44.4258 50.0039C41.6367 48.1113 38.5239 46.0693 37.5527 45.7207C35.8967 45.123 34.0664 45.9573 33.4688 47.6133C32.8711 49.2693 33.7053 51.0996 35.3613 51.6973C36.3201 52.0459 40.0554 52.3074 43.4297 52.4941L27.293 56.9766C26.8821 56.9019 26.5334 56.7649 26.2969 56.6777C20.4946 54.4863 17.6184 48.0366 19.8223 42.2344C21.4658 37.8889 25.5249 35.2119 29.8828 35.0625ZM72.1172 35.0625C76.4751 35.2119 80.5342 37.8889 82.1777 42.2344C84.3691 48.0242 81.5054 54.4863 75.7031 56.6777C75.3047 56.8271 74.5078 57.0139 73.6113 57.0762L58.0723 52.4941C61.5461 52.3074 65.6177 52.0708 66.6387 51.6973C68.2947 51.0996 69.1289 49.2693 68.5312 47.6133C67.9336 45.9573 66.1033 45.123 64.4473 45.7207C63.3889 46.0942 59.9275 48.3603 57.0762 50.3027L66.7383 36.3574C67.1367 36.0835 67.5352 35.8345 67.7344 35.7598C69.1787 35.2119 70.6604 35.0127 72.1172 35.0625ZM45.6211 58.5703C42.7822 60.55 39.2959 62.9905 38.5488 63.8496C37.4033 65.1819 37.615 67.2861 38.9473 68.4316C40.292 69.5771 42.2842 69.3655 43.4297 68.0332C44.2888 67.0371 46.5051 61.9944 47.8125 58.9687V70.7227C47.2273 74.5452 46.0693 77.8821 45.2227 78.8906C41.2383 83.6345 34.2283 84.282 29.4844 80.2852C24.7405 76.3008 24.093 69.2908 28.0898 64.5469C28.426 64.1484 29.198 63.5508 30.1816 62.9531L30.5801 62.7539L45.6211 58.5703ZM56.6777 58.7695L71.918 63.1523C72.802 63.7126 73.4993 64.2729 73.8105 64.6465C77.7949 69.3904 77.1599 76.3879 72.416 80.3848C67.6721 84.3691 60.6746 83.7341 56.6777 78.9902C55.8684 78.0315 54.7852 74.9187 54.1875 71.3203V58.9687C55.4949 61.9944 57.7112 67.0371 58.5703 68.0332C59.7158 69.3655 61.7205 69.5771 63.0527 68.4316C64.385 67.2861 64.5967 65.1819 63.4512 63.8496C62.7415 63.0278 59.4917 60.7368 56.6777 58.7695Z" fill="var(--fill-0, #7DB88A)"/>
</g>
</svg>
