<svg preserveAspectRatio="none" width="100%" height="100%" overflow="visible" style="display: block;" viewBox="0 0 87.6503 87.6089" fill="none" xmlns="http://www.w3.org/2000/svg">
<path id="Vector" d="M43.8252 82.6089C49.9041 82.6089 60.0357 78.058 60.0357 57.579C60.0357 37.0999 43.8252 9.7945 43.8252 9.7945C43.8252 9.7945 27.6146 37.0999 27.6146 57.579C27.6146 78.058 37.7462 82.6089 43.8252 82.6089ZM43.8252 82.6089C37.7462 82.6089 31.8569 81.6043 23.562 75.7826C7.35148 64.4053 5.32516 27.9981 5.32516 27.9981C5.32516 27.9981 23.562 30.2736 31.6673 37.0999M43.8252 82.6089C49.9041 82.6089 55.7934 81.6043 64.0883 75.7826C80.2988 64.4053 82.3252 27.9981 82.3252 27.9981C82.3252 27.9981 64.0883 30.2736 55.9831 37.0999" stroke="var(--stroke-0, #7DB88A)" stroke-width="10"/>
</svg>
