<svg preserveAspectRatio="none" width="100%" height="100%" overflow="visible" style="display: block;" viewBox="0 0 73.1395 96.7067" fill="none" xmlns="http://www.w3.org/2000/svg">
<path id="Vector" d="M36.5698 0C28.776 0 21.3368 2.7518 15.0563 7.95809C10.4935 11.7402 6.70786 16.7442 4.10822 22.4293C1.4206 28.3073 0 34.9387 0 41.6063C0 52.5835 3.75743 62.579 9.88374 70.0219V74.4416C9.88374 86.7187 18.6626 96.7067 29.4535 96.7067H43.686C54.4769 96.7067 63.2558 86.7187 63.2558 74.4416V70.0219C69.3821 62.5792 73.1395 52.5833 73.1395 41.6063C73.1395 18.6646 56.7343 0 36.5698 0ZM9.88789 58.7232C7.3701 53.6641 5.93024 47.8235 5.93024 41.6063C5.93024 35.9382 7.08721 30.5338 9.36926 25.5434C11.0467 21.8746 13.3158 18.5461 16.0165 15.7604C22.7773 15.9598 29.2813 17.9733 35.1038 21.5949C29.4258 23.3501 24.2104 26.776 19.919 31.6584C13.5303 38.9269 9.97754 48.5252 9.88789 58.7232ZM40.428 27.2531C39.1551 30.8821 36.9717 34.005 34.078 36.2693C30.419 39.1324 26.0397 40.2955 21.67 39.5883C22.4178 38.4866 23.2319 37.4306 24.1121 36.4289C28.5924 31.3316 34.2864 28.1533 40.428 27.2531ZM57.3255 74.4416C57.3255 82.9983 51.2068 89.9597 43.686 89.9597H29.4535C21.9327 89.9597 15.814 82.9983 15.814 74.4416V69.711C17.6186 72.445 20.4913 74.2169 23.721 74.2169C29.1709 74.2169 33.6047 69.1725 33.6047 62.9719C33.6047 56.7713 29.1709 51.7269 23.721 51.7269C20.566 51.7269 17.7537 53.4193 15.9431 56.0459C16.2435 52.4637 17.0679 49.0029 18.3731 45.777L19.8523 46.0883C21.2943 46.3918 22.7398 46.5416 24.1752 46.5416C28.5436 46.5416 32.8138 45.1501 36.5726 42.4724C40.3167 45.129 44.6434 46.532 49.0309 46.532C50.4493 46.532 51.8742 46.3856 53.2872 46.0883L54.2164 45.8926C55.2998 48.9149 56.1088 52.061 56.6293 55.2924C54.8247 53.1005 52.2607 51.7269 49.4187 51.7269C43.9687 51.7269 39.535 56.7713 39.535 62.9719C39.535 69.1725 43.9687 74.2169 49.4187 74.2169C52.6484 74.2169 55.5211 72.4452 57.3257 69.711L57.3255 74.4416ZM19.7675 62.9717C19.7675 60.4915 21.541 58.4737 23.721 58.4737C25.9009 58.4737 27.6745 60.4915 27.6745 62.9717C27.6745 65.4519 25.9009 67.4697 23.721 67.4697C21.541 67.4697 19.7675 65.4519 19.7675 62.9717ZM41.4699 37.8465C43.1657 35.7444 44.5461 33.3525 45.5676 30.7484C47.85 33.4675 49.821 36.4337 51.4642 39.59C48.0418 40.138 44.5616 39.5168 41.4699 37.8465ZM53.372 62.9717C53.372 65.4519 51.5985 67.4697 49.4185 67.4697C47.2386 67.4697 45.465 65.4519 45.465 62.9717C45.465 60.4915 47.2386 58.4737 49.4185 58.4737C51.5985 58.4737 53.372 60.4915 53.372 62.9717ZM63.0619 59.1021C62.0644 46.3087 57.1811 34.3998 49.0541 25.1536C42.0337 17.1662 33.2667 11.934 23.7612 9.92452C27.7445 7.83324 32.0868 6.74699 36.5698 6.74699C53.4643 6.74699 67.2093 22.3849 67.2093 41.6063C67.2093 47.9788 65.6974 53.9566 63.0619 59.1021Z" fill="var(--fill-0, #7DB88A)"/>
</svg>
